<?xml version="1.0" encoding="UTF-8" standalone="no"?>
<!-- Created with Inkscape (http://www.inkscape.org/) -->

<svg
   version="1.1"
   id="svg1"
   width="373.04825"
   height="373.04825"
   viewBox="0 0 373.04824 373.04826"
   xmlns="http://www.w3.org/2000/svg"
   xmlns:svg="http://www.w3.org/2000/svg">
  <defs
     id="defs1" />
  <g
     id="g1"
     transform="translate(46.046651,31.120519)">
    <path
       style="fill:#000000"
       d="m 80.477469,238.73694 h -23.33333 v -23.33333 -23.33334 h 23.33333 23.333341 v 23.33334 23.33333 z m 0,-6.66667 h 16.66667 v -16.66666 -16.66667 h -16.66667 -16.66666 v 16.66667 16.66666 z m 0,-6.66666 h -10 v -10 -10 h 10 10.000003 v 10 10 z m 50.000001,13.33333 h -6.66666 v -3.33333 -3.33334 h 3.33333 3.33333 v -6.66666 -6.66667 h -3.33333 -3.33333 v 3.33333 3.33334 h -3.33334 -3.33333 v -6.66667 -6.66667 h -3.33333 -3.33334 v -20 -20 h -6.66666 -6.666671 v 3.33334 3.33333 h 3.333331 3.33334 v 3.33333 3.33334 h -3.33334 -3.333331 v -3.33334 -3.33333 h -3.333333 -3.333334 v 3.33333 3.33334 H 73.810809 57.144139 v -3.33334 -3.33333 h 6.66667 6.66666 v -6.66667 -6.66666 h -6.66666 -6.66667 v -13.33334 -13.33333 h 3.33333 3.33334 v -3.33333 -3.33334 h 3.33333 3.33333 v 3.33334 3.33333 h 3.33334 3.33333 v -3.33333 -3.33334 h 3.33333 3.33334 v -3.33333 -3.33333 h 13.33333 13.333331 v -10 -10 h 6.66667 6.66667 v -3.33333 -3.333336 h -3.33334 -3.33333 V 92.070277 85.40361 h -3.33333 -3.33334 v -3.333333 -3.333333 h 3.33334 3.33333 V 75.40361 72.070277 h 6.66667 6.66666 v 3.333333 3.333334 h 3.33334 3.33333 V 75.40361 72.070277 h 6.66667 6.66666 v 3.333333 3.333334 h -3.33333 -3.33333 v 3.333333 3.333333 h 6.66666 6.66667 v 6.666667 6.666667 h -6.66667 -6.66666 v 3.333336 3.33333 h 3.33333 3.33333 v 3.33333 3.33333 h 3.33334 3.33333 v 3.33334 3.33333 h -3.33333 -3.33334 v 10 10 h 6.66667 6.66667 v 3.33333 3.33334 h -3.33334 -3.33333 v 3.33333 3.33333 h -3.33333 -3.33334 v -3.33333 -3.33333 h -3.33333 -3.33333 v -3.33334 -3.33333 h -3.33334 -3.33333 v 10 10 h 3.33333 3.33334 v 3.33333 3.33334 h 3.33333 3.33333 v 3.33333 3.33333 h 3.33334 3.33333 v -3.33333 -3.33333 h 3.33333 3.33334 v 3.33333 3.33333 h 6.66666 6.66667 v -10 -10 h 3.33333 3.33334 v 6.66667 6.66667 h 3.33333 3.33333 v -3.33334 -3.33333 h 3.33334 3.33333 v -3.33333 -3.33334 h 3.33333 3.33334 v -3.33333 -3.33333 h 3.33333 3.33333 v -3.33334 -3.33333 h -6.66666 -6.66667 v 3.33333 3.33334 h -3.33333 -3.33334 v -6.66667 -6.66667 h -6.66666 -6.66667 v -3.33333 -3.33333 h 6.66667 6.66666 v 3.33333 3.33333 h 10 10 v -3.33333 -3.33333 h 3.33334 3.33333 v 6.66666 6.66667 h 3.33333 3.33334 v 6.66667 6.66666 h -3.33334 -3.33333 v -3.33333 -3.33333 h -3.33333 -3.33334 v 3.33333 3.33333 h -3.33333 -3.33333 v 3.33334 3.33333 h -3.33334 -3.33333 v 3.33333 3.33334 h -3.33333 -3.33334 v 3.33333 3.33333 h -3.33333 -3.33333 v 3.33334 3.33333 h 10 10 v -6.66667 -6.66666 h 3.33333 3.33333 v -3.33334 -3.33333 h 3.33334 3.33333 v 3.33333 3.33334 h 3.33333 3.33334 v 6.66666 6.66667 h -3.33334 -3.33333 v 3.33333 3.33334 h -3.33333 -3.33334 v -3.33334 -3.33333 h -3.33333 -3.33333 v 3.33333 3.33334 h -3.33334 -3.33333 v 3.33333 3.33333 h 3.33333 3.33334 v 3.33334 3.33333 h 6.66666 6.66667 v -3.33333 -3.33334 h 3.33333 3.33334 v 6.66667 6.66667 h -6.66667 -6.66667 v 3.33333 3.33333 h -10 -10 v 6.66667 6.66667 h -3.33333 -3.33333 v -6.66667 -6.66667 h -3.33334 -3.33333 v 10 10 h 6.66667 6.66666 v 3.33334 3.33333 h -10 -10 v -3.33333 -3.33334 h -3.33333 -3.33333 v -3.33333 -3.33333 h 3.33333 3.33333 v -3.33334 -3.33333 h -3.33333 -3.33333 v -3.33333 -3.33334 h -3.33334 -3.33333 v 3.33334 3.33333 h -3.33333 -3.33334 v -3.33333 -3.33334 h 3.33334 3.33333 v -3.33333 -3.33333 h -6.66667 -6.66666 v -3.33334 -3.33333 h -10 -10 v 3.33333 3.33334 h 3.33333 3.33333 v 6.66666 6.66667 h 3.33334 3.33333 v -3.33333 -3.33334 h 3.33333 3.33334 v 3.33334 3.33333 h -3.33334 -3.33333 v 3.33333 3.33334 h 6.66667 6.66666 v 3.33333 3.33333 h 3.33334 3.33333 v 3.33334 3.33333 h -3.33333 -3.33334 v -3.33333 -3.33334 h -6.66666 -6.66667 v 3.33334 3.33333 z m -10,-26.66667 h 3.33334 v -3.33333 -3.33333 h -3.33334 -3.33333 v 3.33333 3.33333 z m 40,-6.66666 h 3.33334 v -3.33334 -3.33333 h -3.33334 -3.33333 v 3.33333 3.33334 z m 20,0 h 10 v -10 -10 h -10 -10 v 10 10 z m 0,-6.66667 h -3.33333 v -3.33333 -3.33334 h 3.33333 3.33334 v 3.33334 3.33333 z m 20,6.66667 h 3.33334 v -3.33334 -3.33333 h -3.33334 -3.33333 v 3.33333 3.33334 z m -53.33333,-6.66667 h 3.33333 v -3.33333 -3.33334 h 6.66667 6.66667 v -6.66666 -6.66667 h -6.66667 -6.66667 v -3.33333 -3.33334 h -3.33333 -3.33333 v -3.33333 -3.33333 h -3.33334 -3.33333 v 3.33333 3.33333 h -3.33333 -3.33334 v -13.33333 -13.33333 h -3.33333 -3.33333 v -3.33334 -3.33333 h 3.33333 3.33333 v -3.33333 -3.33334 h 3.33334 3.33333 v -3.33333 -3.33333 h 3.33333 3.33334 v -3.33334 -3.33333 h 3.33333 3.33333 v -3.33333 -3.33334 h -3.33333 -3.33333 v 3.33334 3.33333 h -3.33334 -3.33333 v -3.33333 -3.33334 h -3.33333 -3.33334 v 6.66667 6.66667 h -3.33333 -3.33333 v 6.66666 6.66667 h -3.33334 -3.33333 v -6.66667 -6.66666 h -3.33333 -3.33334 v 3.33333 3.33333 h -10 -9.999998 v 6.66667 6.66667 h -3.333333 -3.33333 v 3.33333 3.33333 h -3.33334 -3.33333 v -3.33333 -3.33333 h -3.33333 -3.33334 v -3.33334 -3.33333 h -3.33333 -3.33333 v 3.33333 3.33334 h 3.33333 3.33333 v 6.66666 6.66667 h 3.33334 3.33333 v 3.33333 3.33334 h 3.33333 3.33334 v -6.66667 -6.66667 h 3.33333 3.333333 v 3.33334 3.33333 h 3.333334 3.333333 v 3.33333 3.33334 h -3.333333 -3.333334 v 3.33333 3.33333 h -6.666663 -6.66667 v 3.33334 3.33333 h 6.66667 6.666663 v -3.33333 -3.33334 h 3.333334 3.333333 v -3.33333 -3.33333 h 6.666671 6.66666 v 3.33333 3.33333 h 3.33334 3.33333 v 3.33334 3.33333 h 3.33333 3.33334 v 3.33333 3.33334 h -3.33334 -3.33333 v 3.33333 3.33333 h 10 10 v -6.66666 -6.66667 h 3.33333 3.33334 v 10 10 z m -20,-20 h -3.33333 v -3.33333 -3.33334 h -3.33334 -3.33333 v -3.33333 -3.33333 h -3.33333 -3.33334 v -3.33334 -3.33333 h 3.33334 3.33333 v -6.66667 -6.66666 h -10 -10.000001 v 3.33333 3.33333 h 3.333331 3.33334 v 3.33334 3.33333 h -3.33334 -3.333331 v -3.33333 -3.33334 h -3.333333 -3.333334 v -3.33333 -3.33333 h 3.333334 3.333333 v -3.33334 -3.33333 h 10.000001 10 v 3.33333 3.33334 h 3.33333 3.33334 v 13.33333 13.33333 h 3.33333 3.33333 v 3.33334 3.33333 z m 86.66667,0 h 3.33333 v -3.33333 -3.33334 h -3.33333 -3.33334 v 3.33334 3.33333 z m -93.33334,-60 h 3.33334 v -3.33333 -3.33334 h -3.33334 -3.33333 v 3.33334 3.33333 z m 13.33334,-13.33333 h 3.33333 v -3.33333 -3.333336 h -3.33333 -3.33334 v 3.333336 3.33333 z m 0,-13.333333 h 10 V 88.736944 85.40361 h -10 -10 v 3.333334 3.333333 z m 80,146.666663 h -10 v -6.66667 -6.66666 h 3.33333 3.33333 v -3.33334 -3.33333 h 3.33334 3.33333 v -3.33333 -3.33334 h 3.33333 3.33334 v 3.33334 3.33333 h -3.33334 -3.33333 v 6.66667 6.66666 h 3.33333 3.33334 v 3.33334 3.33333 z m -46.66667,-80 h -3.33333 v -3.33333 -3.33334 h 3.33333 3.33333 v 3.33334 3.33333 z m 0,-26.66667 h -3.33333 v -3.33333 -3.33333 h 3.33333 3.33333 v 3.33333 3.33333 z M 80.477469,118.73694 H 57.144139 V 95.40361 72.070277 h 23.33333 23.333341 v 23.333333 23.33333 z m 0,-6.66667 h 16.66667 V 95.40361 78.736944 h -16.66667 -16.66666 v 16.666666 16.66666 z m 0,-6.66666 h -10 v -10 -10 h 10 10.000003 v 10 10 z m 86.666671,13.33333 h -3.33333 v -3.33333 -3.33334 h 3.33333 3.33333 v 3.33334 3.33333 z m 33.33333,0 H 177.14414 V 95.40361 72.070277 h 23.33333 23.33334 v 23.333333 23.33333 z m 0,-6.66667 h 16.66667 V 95.40361 78.736944 h -16.66667 -16.66666 v 16.666666 16.66666 z m 0,-6.66666 h -10 v -10 -10 h 10 10 v 10 10 z m -33.33333,-6.666666 h -3.33333 V 95.40361 92.070277 h 3.33333 3.33333 v 3.333333 3.333334 z m 0,-13.333334 h -3.33333 v -3.333333 -3.333333 h -3.33334 -3.33333 V 75.40361 72.070277 h 6.66667 6.66666 v 6.666667 6.666666 z"
       id="path1" />
  </g>
</svg>
